<svg xmlns="http://www.w3.org/2000/svg" viewBox="0 0 64 64" role="img" aria-labelledby="title desc">
  <title>AffordHomeUSA icon</title>
  <desc>A blue rounded square with a white house and a gold dollar symbol.</desc>
  <defs>
    <linearGradient id="bg" x1="8" y1="6" x2="56" y2="58" gradientUnits="userSpaceOnUse">
      <stop offset="0" stop-color="#0ea5e9" />
      <stop offset="1" stop-color="#0369a1" />
    </linearGradient>
  </defs>
  <rect x="4" y="4" width="56" height="56" rx="16" fill="url(#bg)" />
  <path d="M18 29.5 32 18l14 11.5V46a2 2 0 0 1-2 2H20a2 2 0 0 1-2-2V29.5Z" fill="#ffffff" />
  <path d="M24 29h16v19H24z" fill="#e0f2fe" />
  <path d="M21 30.5 32 21l11 9.5" fill="none" stroke="#ffffff" stroke-linecap="round" stroke-linejoin="round" stroke-width="4" />
  <path d="M32 28c-2.55 0-4.5 1.4-4.5 3.45 0 2.15 1.86 2.95 4.18 3.5 1.93.46 2.82.8 2.82 1.73 0 .8-.8 1.43-2.23 1.43-1.57 0-2.92-.57-4.06-1.53l-1.96 2.34c1.42 1.23 3.15 1.95 5.03 2.14V43h2.24v-1.99c2.7-.37 4.42-1.98 4.42-4.17 0-2.51-1.63-3.41-4.55-4.1-1.83-.42-2.47-.77-2.47-1.55 0-.72.69-1.22 1.89-1.22 1.3 0 2.37.42 3.49 1.18l1.75-2.49c-1.3-.97-2.71-1.55-4.39-1.74V25h-2.24v2.06Z" fill="#f59e0b" />
</svg>